# MagicaVoxel @ Ephtracy

# group
o 

# material
mtllib кот чорный.mtl
usemtl palette

# normals
vn -1 0 0
vn 1 0 0
vn 0 0 1
vn 0 0 -1
vn 0 -1 0
vn 0 1 0

# texcoords
vt 0.150391 0.5
vt 0.583984 0.5
vt 0.896484 0.5
vt 0.931641 0.5
vt 0.962891 0.5
vt 0.994141 0.5

# verts
v -0.9 1 0.5
v -0.9 1 -0.2
v -0.9 1.1 0.3
v -0.9 1.1 0.2
v -0.9 1.1 0.1
v -0.9 1.1 5.96046e-08
v -0.9 1.2 0.3
v -0.9 1.2 0.2
v -0.9 1.2 0.1
v -0.9 1.2 5.96046e-08
v -0.9 1.3 0.4
v -0.9 1.3 0.3
v -0.9 1.3 0.2
v -0.9 1.3 0.1
v -0.9 1.3 5.96046e-08
v -0.9 1.3 -0.1
v -0.9 1.4 0.4
v -0.9 1.4 0.3
v -0.9 1.4 0.2
v -0.9 1.4 0.1
v -0.9 1.4 5.96046e-08
v -0.9 1.4 -0.1
v -0.9 1.6 0.5
v -0.9 1.6 -0.2
v -0.6 0.1 0.6
v -0.6 0.1 0.3
v -0.6 0.1 5.96046e-08
v -0.6 0.1 -0.3
v -0.6 0.2 0.6
v -0.6 0.2 0.3
v -0.6 0.2 5.96046e-08
v -0.6 0.2 -0.3
v -0.6 1.5 0.6
v -0.6 1.5 0.5
v -0.6 1.5 -0.2
v -0.6 1.5 -0.3
v -0.6 1.6 0.5
v -0.6 1.6 0.4
v -0.6 1.6 0.3
v -0.6 1.6 5.96046e-08
v -0.6 1.6 -0.1
v -0.6 1.6 -0.2
v -0.6 1.7 0.5
v -0.6 1.7 0.4
v -0.6 1.7 0.3
v -0.6 1.7 5.96046e-08
v -0.6 1.7 -0.1
v -0.6 1.7 -0.2
v -0.6 1.8 0.6
v -0.6 1.8 0.4
v -0.6 1.8 -0.1
v -0.6 1.8 -0.3
v -0.5 0.2 0.6
v -0.5 0.2 0.3
v -0.5 0.2 5.96046e-08
v -0.5 0.2 -0.3
v -0.5 0.7 0.3
v -0.5 0.7 5.96046e-08
v -0.5 1 0.6
v -0.5 1 0.5
v -0.5 1 -0.2
v -0.5 1 -0.3
v 0.7 0.1 0.6
v 0.7 0.1 0.3
v 0.7 0.1 5.96046e-08
v 0.7 0.1 -0.3
v 0.7 0.2 0.6
v 0.7 0.2 0.3
v 0.7 0.2 5.96046e-08
v 0.7 0.2 -0.3
v 0.8 0.2 0.6
v 0.8 0.2 0.3
v 0.8 0.2 5.96046e-08
v 0.8 0.2 -0.3
v 0.8 0.7 0.6
v 0.8 0.7 0.3
v 0.8 0.7 5.96046e-08
v 0.8 0.7 -0.3
v -0.5 1.5 0.6
v -0.5 1.5 0.5
v -0.5 1.5 -0.2
v -0.5 1.5 -0.3
v -0.5 1.6 0.4
v -0.5 1.6 0.3
v -0.5 1.6 5.96046e-08
v -0.5 1.6 -0.1
v -0.5 1.6 -0.2
v -0.5 1.7 0.5
v -0.5 1.7 0.4
v -0.5 1.7 0.3
v -0.5 1.7 5.96046e-08
v -0.5 1.7 -0.1
v -0.5 1.7 -0.2
v -0.5 1.8 0.6
v -0.5 1.8 0.4
v -0.5 1.8 -0.1
v -0.5 1.8 -0.3
v -0.4 1.6 0.5
v -0.4 1.6 0.4
v -0.4 1.7 0.5
v -0.4 1.7 0.4
v -0.2 0.1 0.6
v -0.2 0.1 0.3
v -0.2 0.1 5.96046e-08
v -0.2 0.1 -0.3
v -0.2 0.7 0.6
v -0.2 0.7 0.3
v -0.2 0.7 5.96046e-08
v -0.2 0.7 -0.3
v -0.2 1 0.5
v -0.2 1 -0.2
v -0.2 1.6 0.5
v -0.2 1.6 -0.2
v 1.1 0.1 0.6
v 1.1 0.1 0.3
v 1.1 0.1 5.96046e-08
v 1.1 0.1 -0.3
v 1.1 0.7 0.3
v 1.1 0.7 5.96046e-08
v 1.1 0.8 0.3
v 1.1 0.8 5.96046e-08
v 1.1 1 0.6
v 1.1 1 0.3
v 1.1 1 5.96046e-08
v 1.1 1 -0.3
v 1.7 0.8 0.3
v 1.7 0.8 5.96046e-08
v 1.7 1 0.3
v 1.7 1 5.96046e-08
v -0.6 0.1 0.6
v -0.6 0.2 0.6
v -0.6 1.5 0.6
v -0.6 1.8 0.6
v -0.5 0.2 0.6
v -0.5 1 0.6
v -0.5 1.5 0.6
v -0.5 1.8 0.6
v -0.2 0.1 0.6
v -0.2 0.7 0.6
v 0.7 0.1 0.6
v 0.7 0.2 0.6
v 0.8 0.2 0.6
v 0.8 0.7 0.6
v 1.1 0.1 0.6
v 1.1 1 0.6
v -0.9 1 0.5
v -0.9 1.6 0.5
v -0.6 1.5 0.5
v -0.6 1.6 0.5
v -0.5 1 0.5
v -0.5 1.5 0.5
v -0.5 1.7 0.5
v -0.4 1.6 0.5
v -0.4 1.7 0.5
v -0.2 1 0.5
v -0.2 1.6 0.5
v 1.1 0.8 0.3
v 1.1 1 0.3
v 1.7 0.8 0.3
v 1.7 1 0.3
v -0.6 0.1 5.96046e-08
v -0.6 0.2 5.96046e-08
v -0.6 1.6 5.96046e-08
v -0.6 1.7 5.96046e-08
v -0.5 0.2 5.96046e-08
v -0.5 0.7 5.96046e-08
v -0.5 1.6 5.96046e-08
v -0.5 1.7 5.96046e-08
v -0.2 0.1 5.96046e-08
v -0.2 0.7 5.96046e-08
v 0.7 0.1 5.96046e-08
v 0.7 0.2 5.96046e-08
v 0.8 0.2 5.96046e-08
v 0.8 0.7 5.96046e-08
v 1.1 0.1 5.96046e-08
v 1.1 0.7 5.96046e-08
v -0.6 1.7 -0.1
v -0.6 1.8 -0.1
v -0.5 1.7 -0.1
v -0.5 1.8 -0.1
v -0.6 1.7 0.4
v -0.6 1.8 0.4
v -0.5 1.6 0.4
v -0.5 1.7 0.4
v -0.5 1.8 0.4
v -0.4 1.6 0.4
v -0.4 1.7 0.4
v -0.6 0.1 0.3
v -0.6 0.2 0.3
v -0.6 1.6 0.3
v -0.6 1.7 0.3
v -0.5 0.2 0.3
v -0.5 0.7 0.3
v -0.5 1.6 0.3
v -0.5 1.7 0.3
v -0.2 0.1 0.3
v -0.2 0.7 0.3
v 0.7 0.1 0.3
v 0.7 0.2 0.3
v 0.8 0.2 0.3
v 0.8 0.7 0.3
v 1.1 0.1 0.3
v 1.1 0.7 0.3
v 1.1 0.8 5.96046e-08
v 1.1 1 5.96046e-08
v 1.7 0.8 5.96046e-08
v 1.7 1 5.96046e-08
v -0.9 1 -0.2
v -0.9 1.6 -0.2
v -0.6 1.5 -0.2
v -0.6 1.6 -0.2
v -0.5 1 -0.2
v -0.5 1.5 -0.2
v -0.5 1.6 -0.2
v -0.2 1 -0.2
v -0.2 1.6 -0.2
v -0.6 0.1 -0.3
v -0.6 0.2 -0.3
v -0.6 1.5 -0.3
v -0.6 1.8 -0.3
v -0.5 0.2 -0.3
v -0.5 1 -0.3
v -0.5 1.5 -0.3
v -0.5 1.8 -0.3
v -0.2 0.1 -0.3
v -0.2 0.7 -0.3
v 0.7 0.1 -0.3
v 0.7 0.2 -0.3
v 0.8 0.2 -0.3
v 0.8 0.7 -0.3
v 1.1 0.1 -0.3
v 1.1 1 -0.3
v -0.6 0.1 0.6
v -0.2 0.1 0.6
v 0.7 0.1 0.6
v 1.1 0.1 0.6
v -0.6 0.1 0.3
v -0.2 0.1 0.3
v 0.7 0.1 0.3
v 1.1 0.1 0.3
v -0.6 0.1 5.96046e-08
v -0.2 0.1 5.96046e-08
v 0.7 0.1 5.96046e-08
v 1.1 0.1 5.96046e-08
v -0.6 0.1 -0.3
v -0.2 0.1 -0.3
v 0.7 0.1 -0.3
v 1.1 0.1 -0.3
v -0.2 0.7 0.6
v 0.8 0.7 0.6
v -0.5 0.7 0.3
v -0.2 0.7 0.3
v 0.8 0.7 0.3
v 1.1 0.7 0.3
v -0.5 0.7 5.96046e-08
v -0.2 0.7 5.96046e-08
v 0.8 0.7 5.96046e-08
v 1.1 0.7 5.96046e-08
v -0.2 0.7 -0.3
v 0.8 0.7 -0.3
v 1.1 0.8 0.3
v 1.7 0.8 0.3
v 1.1 0.8 5.96046e-08
v 1.7 0.8 5.96046e-08
v -0.9 1 0.5
v -0.5 1 0.5
v -0.9 1 -0.2
v -0.5 1 -0.2
v -0.6 1.5 0.6
v -0.5 1.5 0.6
v -0.6 1.5 0.5
v -0.5 1.5 0.5
v -0.6 1.5 -0.2
v -0.5 1.5 -0.2
v -0.6 1.5 -0.3
v -0.5 1.5 -0.3
v -0.6 0.2 0.6
v -0.5 0.2 0.6
v 0.7 0.2 0.6
v 0.8 0.2 0.6
v -0.6 0.2 0.3
v -0.5 0.2 0.3
v 0.7 0.2 0.3
v 0.8 0.2 0.3
v -0.6 0.2 5.96046e-08
v -0.5 0.2 5.96046e-08
v 0.7 0.2 5.96046e-08
v 0.8 0.2 5.96046e-08
v -0.6 0.2 -0.3
v -0.5 0.2 -0.3
v 0.7 0.2 -0.3
v 0.8 0.2 -0.3
v -0.5 1 0.6
v 1.1 1 0.6
v -0.5 1 0.5
v -0.2 1 0.5
v 1.1 1 0.3
v 1.7 1 0.3
v 1.1 1 5.96046e-08
v 1.7 1 5.96046e-08
v -0.5 1 -0.2
v -0.2 1 -0.2
v -0.5 1 -0.3
v 1.1 1 -0.3
v -0.9 1.6 0.5
v -0.6 1.6 0.5
v -0.4 1.6 0.5
v -0.2 1.6 0.5
v -0.6 1.6 0.4
v -0.5 1.6 0.4
v -0.4 1.6 0.4
v -0.6 1.6 0.3
v -0.5 1.6 0.3
v -0.6 1.6 5.96046e-08
v -0.5 1.6 5.96046e-08
v -0.6 1.6 -0.1
v -0.5 1.6 -0.1
v -0.9 1.6 -0.2
v -0.6 1.6 -0.2
v -0.5 1.6 -0.2
v -0.2 1.6 -0.2
v -0.5 1.7 0.5
v -0.4 1.7 0.5
v -0.6 1.7 0.4
v -0.5 1.7 0.4
v -0.4 1.7 0.4
v -0.6 1.7 0.3
v -0.5 1.7 0.3
v -0.6 1.7 5.96046e-08
v -0.5 1.7 5.96046e-08
v -0.6 1.7 -0.1
v -0.5 1.7 -0.1
v -0.6 1.8 0.6
v -0.5 1.8 0.6
v -0.6 1.8 0.4
v -0.5 1.8 0.4
v -0.6 1.8 -0.1
v -0.5 1.8 -0.1
v -0.6 1.8 -0.3
v -0.5 1.8 -0.3

# faces
f 3/6/1 2/6/1 1/6/1
f 4/6/1 2/6/1 3/6/1
f 5/6/1 2/6/1 4/6/1
f 6/6/1 2/6/1 5/6/1
f 7/6/1 3/6/1 1/6/1
f 7/4/1 4/4/1 3/4/1
f 8/6/1 5/6/1 4/6/1
f 8/4/1 4/4/1 7/4/1
f 9/4/1 6/4/1 5/4/1
f 9/6/1 5/6/1 8/6/1
f 10/6/1 2/6/1 6/6/1
f 10/4/1 6/4/1 9/4/1
f 11/6/1 8/6/1 7/6/1
f 11/6/1 7/6/1 1/6/1
f 12/6/1 8/6/1 11/6/1
f 13/3/1 9/3/1 8/3/1
f 13/6/1 8/6/1 12/6/1
f 14/6/1 10/6/1 9/6/1
f 14/3/1 9/3/1 13/3/1
f 15/6/1 2/6/1 10/6/1
f 15/6/1 10/6/1 14/6/1
f 16/6/1 2/6/1 15/6/1
f 17/2/1 12/2/1 11/2/1
f 17/6/1 11/6/1 1/6/1
f 18/5/1 13/5/1 12/5/1
f 18/2/1 12/2/1 17/2/1
f 19/6/1 14/6/1 13/6/1
f 19/5/1 13/5/1 18/5/1
f 20/2/1 15/2/1 14/2/1
f 20/6/1 14/6/1 19/6/1
f 21/5/1 16/5/1 15/5/1
f 21/2/1 15/2/1 20/2/1
f 22/6/1 2/6/1 16/6/1
f 22/5/1 16/5/1 21/5/1
f 23/6/1 21/6/1 20/6/1
f 23/6/1 18/6/1 17/6/1
f 23/6/1 22/6/1 21/6/1
f 23/6/1 19/6/1 18/6/1
f 23/6/1 20/6/1 19/6/1
f 23/6/1 17/6/1 1/6/1
f 24/6/1 2/6/1 22/6/1
f 24/6/1 22/6/1 23/6/1
f 29/6/1 26/6/1 25/6/1
f 30/6/1 26/6/1 29/6/1
f 31/6/1 28/6/1 27/6/1
f 32/6/1 28/6/1 31/6/1
f 37/6/1 34/6/1 33/6/1
f 42/6/1 36/6/1 35/6/1
f 43/6/1 37/6/1 33/6/1
f 43/1/1 38/1/1 37/1/1
f 44/6/1 39/6/1 38/6/1
f 44/1/1 38/1/1 43/1/1
f 45/6/1 39/6/1 44/6/1
f 46/6/1 41/6/1 40/6/1
f 47/1/1 42/1/1 41/1/1
f 47/6/1 41/6/1 46/6/1
f 48/6/1 36/6/1 42/6/1
f 48/1/1 42/1/1 47/1/1
f 49/6/1 43/6/1 33/6/1
f 49/6/1 44/6/1 43/6/1
f 50/6/1 44/6/1 49/6/1
f 51/6/1 48/6/1 47/6/1
f 52/6/1 36/6/1 48/6/1
f 52/6/1 48/6/1 51/6/1
f 57/6/1 54/6/1 53/6/1
f 58/6/1 56/6/1 55/6/1
f 59/6/1 57/6/1 53/6/1
f 59/6/1 58/6/1 57/6/1
f 60/6/1 58/6/1 59/6/1
f 61/6/1 56/6/1 58/6/1
f 61/6/1 58/6/1 60/6/1
f 62/6/1 56/6/1 61/6/1
f 67/6/1 64/6/1 63/6/1
f 68/6/1 64/6/1 67/6/1
f 69/6/1 66/6/1 65/6/1
f 70/6/1 66/6/1 69/6/1
f 75/6/1 72/6/1 71/6/1
f 76/6/1 72/6/1 75/6/1
f 77/6/1 74/6/1 73/6/1
f 78/6/1 74/6/1 77/6/1
f 81/6/2 82/6/2 87/6/2
f 79/6/2 80/6/2 88/6/2
f 83/6/2 84/6/2 89/6/2
f 89/6/2 84/6/2 90/6/2
f 85/6/2 86/6/2 91/6/2
f 86/1/2 87/1/2 92/1/2
f 91/6/2 86/6/2 92/6/2
f 87/6/2 82/6/2 93/6/2
f 92/1/2 87/1/2 93/1/2
f 79/6/2 88/6/2 94/6/2
f 88/6/2 89/6/2 94/6/2
f 94/6/2 89/6/2 95/6/2
f 92/6/2 93/6/2 96/6/2
f 93/6/2 82/6/2 97/6/2
f 96/6/2 93/6/2 97/6/2
f 98/6/2 99/6/2 100/6/2
f 100/6/2 99/6/2 101/6/2
f 102/6/2 103/6/2 106/6/2
f 106/6/2 103/6/2 107/6/2
f 104/6/2 105/6/2 108/6/2
f 108/6/2 105/6/2 109/6/2
f 110/6/2 111/6/2 112/6/2
f 112/6/2 111/6/2 113/6/2
f 114/6/2 115/6/2 118/6/2
f 116/6/2 117/6/2 119/6/2
f 114/6/2 118/6/2 120/6/2
f 118/6/2 119/6/2 120/6/2
f 119/6/2 117/6/2 121/6/2
f 120/6/2 119/6/2 121/6/2
f 114/6/2 120/6/2 122/6/2
f 122/6/2 120/6/2 123/6/2
f 121/6/2 117/6/2 124/6/2
f 124/6/2 117/6/2 125/6/2
f 126/6/2 127/6/2 128/6/2
f 128/6/2 127/6/2 129/6/2
f 134/6/3 131/6/3 130/6/3
f 136/6/3 133/6/3 132/6/3
f 137/6/3 133/6/3 136/6/3
f 138/6/3 135/6/3 134/6/3
f 138/6/3 134/6/3 130/6/3
f 139/6/3 135/6/3 138/6/3
f 142/6/3 141/6/3 140/6/3
f 143/6/3 135/6/3 139/6/3
f 144/6/3 142/6/3 140/6/3
f 144/6/3 143/6/3 142/6/3
f 145/6/3 135/6/3 143/6/3
f 145/6/3 143/6/3 144/6/3
f 148/6/3 147/6/3 146/6/3
f 149/6/3 147/6/3 148/6/3
f 150/6/3 148/6/3 146/6/3
f 151/6/3 148/6/3 150/6/3
f 153/6/3 151/6/3 150/6/3
f 153/6/3 152/6/3 151/6/3
f 154/6/3 152/6/3 153/6/3
f 155/6/3 153/6/3 150/6/3
f 156/6/3 153/6/3 155/6/3
f 159/6/3 158/6/3 157/6/3
f 160/6/3 158/6/3 159/6/3
f 165/6/3 162/6/3 161/6/3
f 167/6/3 164/6/3 163/6/3
f 168/6/3 164/6/3 167/6/3
f 169/6/3 166/6/3 165/6/3
f 169/6/3 165/6/3 161/6/3
f 170/6/3 166/6/3 169/6/3
f 173/6/3 172/6/3 171/6/3
f 175/6/3 173/6/3 171/6/3
f 175/6/3 174/6/3 173/6/3
f 176/6/3 174/6/3 175/6/3
f 179/6/3 178/6/3 177/6/3
f 180/6/3 178/6/3 179/6/3
f 181/6/4 182/6/4 184/6/4
f 184/6/4 182/6/4 185/6/4
f 183/6/4 184/6/4 186/6/4
f 186/6/4 184/6/4 187/6/4
f 188/6/4 189/6/4 192/6/4
f 190/6/4 191/6/4 194/6/4
f 194/6/4 191/6/4 195/6/4
f 192/6/4 193/6/4 196/6/4
f 188/6/4 192/6/4 196/6/4
f 196/6/4 193/6/4 197/6/4
f 198/6/4 199/6/4 200/6/4
f 198/6/4 200/6/4 202/6/4
f 200/6/4 201/6/4 202/6/4
f 202/6/4 201/6/4 203/6/4
f 204/6/4 205/6/4 206/6/4
f 206/6/4 205/6/4 207/6/4
f 208/6/4 209/6/4 210/6/4
f 210/6/4 209/6/4 211/6/4
f 208/6/4 210/6/4 212/6/4
f 212/6/4 210/6/4 213/6/4
f 212/6/4 213/6/4 215/6/4
f 213/6/4 214/6/4 215/6/4
f 215/6/4 214/6/4 216/6/4
f 217/6/4 218/6/4 221/6/4
f 219/6/4 220/6/4 223/6/4
f 223/6/4 220/6/4 224/6/4
f 221/6/4 222/6/4 225/6/4
f 217/6/4 221/6/4 225/6/4
f 225/6/4 222/6/4 226/6/4
f 227/6/4 228/6/4 229/6/4
f 226/6/4 222/6/4 230/6/4
f 227/6/4 229/6/4 231/6/4
f 229/6/4 230/6/4 231/6/4
f 230/6/4 222/6/4 232/6/4
f 231/6/4 230/6/4 232/6/4
f 237/6/5 234/6/5 233/6/5
f 238/6/5 234/6/5 237/6/5
f 239/6/5 236/6/5 235/6/5
f 240/6/5 236/6/5 239/6/5
f 245/6/5 242/6/5 241/6/5
f 246/6/5 242/6/5 245/6/5
f 247/6/5 244/6/5 243/6/5
f 248/6/5 244/6/5 247/6/5
f 252/6/5 250/6/5 249/6/5
f 253/6/5 250/6/5 252/6/5
f 255/6/5 252/6/5 251/6/5
f 255/6/5 254/6/5 253/6/5
f 255/6/5 253/6/5 252/6/5
f 256/6/5 254/6/5 255/6/5
f 257/6/5 254/6/5 256/6/5
f 258/6/5 254/6/5 257/6/5
f 259/6/5 257/6/5 256/6/5
f 260/6/5 257/6/5 259/6/5
f 263/6/5 262/6/5 261/6/5
f 264/6/5 262/6/5 263/6/5
f 267/6/5 266/6/5 265/6/5
f 268/6/5 266/6/5 267/6/5
f 271/6/5 270/6/5 269/6/5
f 272/6/5 270/6/5 271/6/5
f 275/6/5 274/6/5 273/6/5
f 276/6/5 274/6/5 275/6/5
f 277/6/6 278/6/6 281/6/6
f 281/6/6 278/6/6 282/6/6
f 279/6/6 280/6/6 283/6/6
f 283/6/6 280/6/6 284/6/6
f 285/6/6 286/6/6 289/6/6
f 289/6/6 286/6/6 290/6/6
f 287/6/6 288/6/6 291/6/6
f 291/6/6 288/6/6 292/6/6
f 293/6/6 294/6/6 295/6/6
f 295/6/6 294/6/6 296/6/6
f 296/6/6 294/6/6 297/6/6
f 296/6/6 297/6/6 299/6/6
f 297/6/6 298/6/6 299/6/6
f 299/6/6 298/6/6 300/6/6
f 296/6/6 299/6/6 302/6/6
f 301/6/6 302/6/6 303/6/6
f 302/6/6 299/6/6 304/6/6
f 303/6/6 302/6/6 304/6/6
f 305/6/6 306/6/6 309/6/6
f 307/6/6 308/6/6 311/6/6
f 305/6/6 309/6/6 312/6/6
f 310/6/6 311/6/6 313/6/6
f 305/6/6 312/6/6 314/6/6
f 312/6/6 313/6/6 314/6/6
f 313/6/6 311/6/6 315/6/6
f 314/6/6 313/6/6 315/6/6
f 305/6/6 314/6/6 316/6/6
f 315/6/6 311/6/6 317/6/6
f 305/6/6 316/6/6 318/6/6
f 318/6/6 316/6/6 319/6/6
f 317/6/6 311/6/6 320/6/6
f 311/6/6 308/6/6 321/6/6
f 320/6/6 311/6/6 321/6/6
f 322/6/6 323/6/6 325/6/6
f 325/6/6 323/6/6 326/6/6
f 324/6/6 325/6/6 327/6/6
f 327/6/6 325/6/6 328/6/6
f 329/6/6 330/6/6 331/6/6
f 331/6/6 330/6/6 332/6/6
f 333/6/6 334/6/6 335/6/6
f 335/6/6 334/6/6 336/6/6
f 337/6/6 338/6/6 339/6/6
f 339/6/6 338/6/6 340/6/6
